<svg width="38" height="38" viewBox="0 0 38 38" fill="none" xmlns="http://www.w3.org/2000/svg">
<path d="M17.5 25L11.5 19L17.5 25ZM11.5 19L17.5 13L11.5 19ZM11.5 19H26.5H11.5ZM1 19C1 21.3638 1.46558 23.7044 2.37017 25.8883C3.27475 28.0722 4.60062 30.0565 6.27208 31.7279C7.94353 33.3994 9.92784 34.7253 12.1117 35.6298C14.2956 36.5344 16.6362 37 19 37C21.3638 37 23.7044 36.5344 25.8883 35.6298C28.0722 34.7253 30.0565 33.3994 31.7279 31.7279C33.3994 30.0565 34.7252 28.0722 35.6298 25.8883C36.5344 23.7044 37 21.3638 37 19C37 14.2261 35.1036 9.64773 31.7279 6.27208C28.3523 2.89642 23.7739 1 19 1C14.2261 1 9.64773 2.89642 6.27208 6.27208C2.89642 9.64773 1 14.2261 1 19Z" fill="white"/>
<path d="M17.5 25L11.5 19M11.5 19L17.5 13M11.5 19H26.5M1 19C1 21.3638 1.46558 23.7044 2.37017 25.8883C3.27475 28.0722 4.60062 30.0565 6.27208 31.7279C7.94353 33.3994 9.92784 34.7252 12.1117 35.6298C14.2956 36.5344 16.6362 37 19 37C21.3638 37 23.7044 36.5344 25.8883 35.6298C28.0722 34.7252 30.0565 33.3994 31.7279 31.7279C33.3994 30.0565 34.7252 28.0722 35.6298 25.8883C36.5344 23.7044 37 21.3638 37 19C37 14.2261 35.1036 9.64773 31.7279 6.27208C28.3523 2.89642 23.7739 1 19 1C14.2261 1 9.64773 2.89642 6.27208 6.27208C2.89642 9.64773 1 14.2261 1 19Z" stroke="#001324" stroke-width="2" stroke-linecap="round" stroke-linejoin="round"/>
</svg>
