<svg width="40" height="40" viewBox="0 0 40 40" fill="none" xmlns="http://www.w3.org/2000/svg">
<path d="M0 2.53968C0 1.13705 1.15539 0 2.58065 0H9.46237C10.8876 0 12.043 1.13705 12.043 2.53968V9.52381C12.043 10.9264 10.8876 12.0635 9.46237 12.0635H2.58064C1.15539 12.0635 0 10.9264 0 9.52381V2.53968Z" fill="#93B8DB"/>
<path d="M13.9785 2.53968C13.9785 1.13705 15.1339 0 16.5591 0H23.4409C24.8661 0 26.0215 1.13705 26.0215 2.53968V9.52381C26.0215 10.9264 24.8661 12.0635 23.4409 12.0635H16.5591C15.1339 12.0635 13.9785 10.9264 13.9785 9.52381V2.53968Z" fill="#93B8DB"/>
<path d="M27.957 2.53968C27.957 1.13705 29.1124 0 30.5376 0H37.4194C38.8446 0 40 1.13705 40 2.53968V9.52381C40 10.9264 38.8446 12.0635 37.4193 12.0635H30.5376C29.1124 12.0635 27.957 10.9264 27.957 9.52381V2.53968Z" fill="#93B8DB"/>
<path d="M0 16.5079C0 15.1053 1.15539 13.9683 2.58065 13.9683H9.46237C10.8876 13.9683 12.043 15.1053 12.043 16.5079V23.4921C12.043 24.8947 10.8876 26.0317 9.46237 26.0317H2.58064C1.15539 26.0317 0 24.8947 0 23.4921V16.5079Z" fill="#93B8DB"/>
<path d="M13.9785 16.5079C13.9785 15.1053 15.1339 13.9683 16.5591 13.9683H23.4409C24.8661 13.9683 26.0215 15.1053 26.0215 16.5079V23.4921C26.0215 24.8947 24.8661 26.0317 23.4409 26.0317H16.5591C15.1339 26.0317 13.9785 24.8947 13.9785 23.4921V16.5079Z" fill="#93B8DB"/>
<path d="M27.957 16.5079C27.957 15.1053 29.1124 13.9683 30.5376 13.9683H37.4194C38.8446 13.9683 40 15.1053 40 16.5079V23.4921C40 24.8947 38.8446 26.0317 37.4193 26.0317H30.5376C29.1124 26.0317 27.957 24.8947 27.957 23.4921V16.5079Z" fill="#93B8DB"/>
<path d="M0 30.4762C0 29.0736 1.15539 27.9365 2.58065 27.9365H9.46237C10.8876 27.9365 12.043 29.0736 12.043 30.4762V37.4603C12.043 38.8629 10.8876 40 9.46237 40H2.58064C1.15539 40 0 38.8629 0 37.4603V30.4762Z" fill="#93B8DB"/>
<path d="M13.9785 30.4762C13.9785 29.0736 15.1339 27.9365 16.5591 27.9365H23.4409C24.8661 27.9365 26.0215 29.0736 26.0215 30.4762V37.4603C26.0215 38.8629 24.8661 40 23.4409 40H16.5591C15.1339 40 13.9785 38.8629 13.9785 37.4603V30.4762Z" fill="#93B8DB"/>
<path d="M27.957 30.4762C27.957 29.0736 29.1124 27.9365 30.5376 27.9365H37.4194C38.8446 27.9365 40 29.0736 40 30.4762V37.4603C40 38.8629 38.8446 40 37.4193 40H30.5376C29.1124 40 27.957 38.8629 27.957 37.4603V30.4762Z" fill="#93B8DB"/>
</svg>
